<?xml version="1.0" encoding="UTF-8" standalone="no"?>
<svg width="1238px" height="1238px" viewBox="0 0 1238 1238" version="1.1" xmlns="http://www.w3.org/2000/svg" xmlns:xlink="http://www.w3.org/1999/xlink">
    <!-- Generator: Sketch 3.8.3 (29802) - http://www.bohemiancoding.com/sketch -->
    <title>Group 18</title>
    <desc>Created with Sketch.</desc>
    <defs></defs>
    <g id="temp" stroke="none" stroke-width="1" fill="none" fill-rule="evenodd">
        <g id="Group-18" transform="translate(-24.000000, -24.000000)">
            <circle id="Oval-33" stroke="#FFFFFF" stroke-width="4" stroke-dasharray="15" cx="643" cy="643" r="617"></circle>
            <circle id="Oval-33" stroke="#FFFFFF" stroke-width="4" stroke-dasharray="15" cx="643" cy="643" r="591.5"></circle>
            <g id="Group-19" transform="translate(503.000000, 643.000000) scale(-1, 1) translate(-503.000000, -643.000000) translate(146.000000, 217.000000)" fill="#FFFFFF">
                <path d="M219.024178,15.5791287 L219.024178,53.1523003 L230.021191,56.8179767 C233.686884,57.4289306 237.047075,58.345338 240.101813,59.5672457 C243.156536,60.7891222 246.516743,62.01103 250.18242,63.2329065 C253.237158,64.4548143 256.29188,65.8294332 259.346603,67.3567945 C262.401341,68.8841714 265.150594,70.5642594 267.594379,72.3971054 L278.591408,78.8120352 L306.083989,51.3194699 L339.075077,84.3105577 L311.582496,112.719546 L317.081018,122.800152 C318.913849,125.85489 320.593952,128.756886 322.121314,131.50614 C323.64869,134.255393 325.023309,137.157389 326.245201,140.212127 C327.467094,143.877788 328.536259,147.237995 329.452666,150.292733 C330.369089,153.347456 331.13277,156.402194 331.743724,159.456916 L334.492977,171.370369 L374.815418,171.370369 L374.815418,219.024162 L333.576554,219.024162 L330.827301,230.021191 C329.605409,233.07593 328.536259,236.130652 327.619836,239.185375 C326.703413,242.240113 325.634263,245.294851 324.412371,248.349574 C323.190479,251.404296 321.815844,254.306292 320.288483,257.055561 C318.761122,259.804814 317.081018,262.70681 315.248172,265.761533 L308.833242,275.842139 L339.075077,306.083973 L306.083989,339.075061 L275.842155,308.833242 L264.845125,314.331749 C262.401341,316.164595 259.804814,317.691956 257.055561,318.913849 C254.306308,320.135741 251.404312,321.357633 248.349589,322.579525 C245.294851,323.801417 242.240113,324.870567 239.18539,325.78699 C236.130668,326.703413 233.07593,327.772563 230.021191,328.994455 L219.024178,331.743708 L219.024178,374.815418 L171.370369,374.815418 L171.370369,331.743708 L160.373355,328.994455 C157.318617,327.772563 154.263879,326.703413 151.209156,325.78699 C148.154434,324.870567 145.099696,323.801417 142.044957,322.579525 C138.990235,321.357633 136.088239,320.135741 133.338986,318.913849 C130.589732,317.691956 127.993206,316.164595 125.549421,314.331749 L114.552392,308.833242 L84.3105577,339.075061 L51.3194699,306.083973 L81.5613043,275.842139 L75.1463744,265.761533 C73.3135284,262.70681 71.6334248,259.804814 70.1060635,257.055561 C68.5787022,254.306292 67.2040677,251.404296 65.9821756,248.349574 C64.7602834,245.294851 63.6911337,242.240113 62.7747107,239.185375 C61.8582876,236.130652 60.7891379,233.07593 59.5672457,230.021191 L56.8179923,219.024162 L15.5791287,219.024162 L15.5791287,171.370369 L55.9015693,171.370369 L58.6508227,159.456916 C59.2617766,156.402194 60.0254573,153.347456 60.9418803,150.292733 C61.8582876,147.237995 62.927453,143.877788 64.1493452,140.212127 C65.3712373,137.157389 66.7458562,134.255393 68.2732331,131.50614 C69.8005944,128.756886 71.480698,125.85489 73.3135284,122.800152 L78.8120509,112.719546 L51.3194699,84.3105577 L84.3105577,51.3194699 L111.803139,78.8120352 L122.800168,72.3971054 C125.243952,70.5642594 127.993206,68.8841714 131.047944,67.3567945 C134.102666,65.8294332 137.157389,64.4548143 140.212127,63.2329065 C143.877803,62.01103 147.238011,60.7891222 150.292733,59.5672457 C153.347471,58.345338 156.707663,57.4289306 160.373355,56.8179767 L171.370369,53.1523003 L171.370369,15.5791287 L219.024178,15.5791287 Z M195.197273,265.761533 C204.97241,265.761533 214.136609,263.928702 222.689839,260.263026 C231.243099,256.597349 238.574452,251.404296 244.683897,244.683897 C251.404312,238.574436 256.597349,231.243084 260.263026,222.689839 C263.928702,214.136594 265.761548,204.972395 265.761548,195.197258 C265.761548,185.422121 263.928702,176.257937 260.263026,167.704692 C256.597349,159.151447 251.404312,151.820095 244.683897,145.710634 C238.574452,138.990219 231.243099,133.797182 222.689839,130.131505 C214.136609,126.465829 204.97241,124.632998 195.197273,124.632998 C185.422136,124.632998 176.257937,126.465829 167.704708,130.131505 C159.151447,133.797182 151.820095,138.990219 145.710649,145.710634 C138.990235,151.820095 133.797197,159.151447 130.131521,167.704692 C126.465844,176.257937 124.632998,185.422121 124.632998,195.197258 C124.632998,204.972395 126.465844,214.136594 130.131521,222.689839 C133.797197,231.243084 138.990235,238.574436 145.710649,244.683897 C151.820095,251.404296 159.151447,256.597349 167.704708,260.263026 C176.257937,263.928702 185.422136,265.761533 195.197273,265.761533 L195.197273,265.761533 Z M234.603291,0 L155.791256,0 L155.791256,41.238848 C152.125579,42.4607558 148.459903,43.6826323 144.794226,44.9045401 C141.12855,46.1264166 137.768343,47.3483243 134.713605,48.5702008 C131.047944,50.4030469 127.534994,52.0831505 124.174787,53.6105118 C120.814595,55.1378731 117.607115,56.8179767 114.552392,58.6508227 L84.3105577,29.3254114 L29.3254114,84.3105577 L59.5672457,114.552376 C57.7344154,118.218068 56.0543117,121.57826 54.5269348,124.632998 C52.9995735,127.687721 51.624939,131.047928 50.4030625,134.713605 C48.5702165,138.379281 47.195582,141.892215 46.2791746,145.252422 C45.3627516,148.61263 44.2935862,152.125564 43.0717097,155.79124 L0,155.79124 L0,234.603291 L44.9045401,234.603291 C45.515494,237.658013 46.4319013,240.865478 47.6537935,244.225686 C48.8756856,247.585893 50.4030625,251.098827 52.2358929,254.764503 C53.457785,257.819242 54.8324196,261.026707 56.3597808,264.386914 C57.8871421,267.747105 59.5672457,270.649101 61.4000761,273.092886 L29.3254114,306.083973 L84.3105577,361.06912 L117.301645,328.078032 C120.356384,329.910878 123.411106,331.590982 126.465844,333.118343 C129.520567,334.645704 132.880774,336.020339 136.546451,337.242231 C139.601173,338.464123 142.808654,339.686015 146.168845,340.907907 C149.529053,342.129799 152.736518,343.046222 155.791256,343.657161 L155.791256,390.394531 L234.603291,390.394531 L234.603291,343.657161 C237.658029,343.046222 240.865494,342.129799 244.225701,340.907907 C247.585893,339.686015 250.793374,338.464123 253.848096,337.242231 C257.513772,336.020339 260.87398,334.645704 263.928702,333.118343 C266.98344,331.590982 270.038163,329.910878 273.092901,328.078032 L306.083989,361.06912 L361.069135,306.083973 L328.994471,273.092886 C330.827301,270.649101 332.507405,267.747105 334.034766,264.386914 C335.562127,261.026707 336.936762,257.819242 338.158654,254.764503 C339.991484,251.098827 341.518861,247.585893 342.740753,244.225686 C343.962645,240.865478 344.879053,237.658013 345.490007,234.603291 L390.394547,234.603291 L390.394547,155.79124 L347.322837,155.79124 C346.10096,152.125564 345.031795,148.61263 344.115372,145.252422 C343.198965,141.892215 341.82433,138.379281 339.991484,134.713605 C338.769608,131.047928 337.394973,127.687721 335.867612,124.632998 C334.340235,121.57826 332.660131,118.218068 330.827301,114.552376 L361.069135,84.3105577 L306.083989,29.3254114 L275.842155,58.6508227 C272.787432,56.8179767 269.579951,55.1378731 266.21976,53.6105118 C262.859553,52.0831505 259.346603,50.4030469 255.680942,48.5702008 C252.626204,47.3483243 249.265997,46.1264166 245.60032,44.9045401 C241.934644,43.6826323 238.268967,42.4607558 234.603291,41.238848 L234.603291,0 L234.603291,0 Z M195.197273,250.18242 C187.86592,250.18242 180.840037,248.655043 174.119638,245.60032 C167.399223,242.545582 161.595232,238.574436 156.707663,233.686868 C151.820095,228.799299 147.848949,222.995308 144.794226,216.274909 C141.739488,209.554494 140.212127,202.528611 140.212127,195.197258 C140.212127,187.865905 141.739488,180.840037 144.794226,174.119622 C147.848949,167.399223 151.820095,161.595232 156.707663,156.707663 C161.595232,151.820095 167.399223,147.848949 174.119638,144.794211 C180.840037,141.739488 187.86592,140.212127 195.197273,140.212127 C202.528626,140.212127 209.55451,141.739488 216.274909,144.794211 C222.995323,147.848949 228.799315,151.820095 233.686884,156.707663 C238.574452,161.595232 242.545598,167.399223 245.60032,174.119622 C248.655058,180.840037 250.18242,187.865905 250.18242,195.197258 C250.18242,202.528611 248.655058,209.554494 245.60032,216.274909 C242.545598,222.995308 238.574452,228.799299 233.686884,233.686868 C228.799315,238.574436 222.995323,242.545582 216.274909,245.60032 C209.55451,248.655043 202.528626,250.18242 195.197273,250.18242 L195.197273,250.18242 Z" id="Shape"></path>
                <path d="M410.024178,476.579129 L410.024178,514.1523 L421.021191,517.817977 C424.686884,518.428931 428.047075,519.345338 431.101813,520.567246 C434.156536,521.789122 437.516743,523.01103 441.18242,524.232907 C444.237158,525.454814 447.29188,526.829433 450.346603,528.356794 C453.401341,529.884171 456.150594,531.564259 458.594379,533.397105 L469.591408,539.812035 L497.083989,512.31947 L530.075077,545.310558 L502.582496,573.719546 L508.081018,583.800152 C509.913849,586.85489 511.593952,589.756886 513.121314,592.50614 C514.64869,595.255393 516.023309,598.157389 517.245201,601.212127 C518.467094,604.877788 519.536259,608.237995 520.452666,611.292733 C521.369089,614.347456 522.13277,617.402194 522.743724,620.456916 L525.492977,632.370369 L565.815418,632.370369 L565.815418,680.024162 L524.576554,680.024162 L521.827301,691.021191 C520.605409,694.07593 519.536259,697.130652 518.619836,700.185375 C517.703413,703.240113 516.634263,706.294851 515.412371,709.349574 C514.190479,712.404296 512.815844,715.306292 511.288483,718.055561 C509.761122,720.804814 508.081018,723.70681 506.248172,726.761533 L499.833242,736.842139 L530.075077,767.083973 L497.083989,800.075061 L466.842155,769.833242 L455.845125,775.331749 C453.401341,777.164595 450.804814,778.691956 448.055561,779.913849 C445.306308,781.135741 442.404312,782.357633 439.349589,783.579525 C436.294851,784.801417 433.240113,785.870567 430.18539,786.78699 C427.130668,787.703413 424.07593,788.772563 421.021191,789.994455 L410.024178,792.743708 L410.024178,835.815418 L362.370369,835.815418 L362.370369,792.743708 L351.373355,789.994455 C348.318617,788.772563 345.263879,787.703413 342.209156,786.78699 C339.154434,785.870567 336.099696,784.801417 333.044957,783.579525 C329.990235,782.357633 327.088239,781.135741 324.338986,779.913849 C321.589732,778.691956 318.993206,777.164595 316.549421,775.331749 L305.552392,769.833242 L275.310558,800.075061 L242.31947,767.083973 L272.561304,736.842139 L266.146374,726.761533 C264.313528,723.70681 262.633425,720.804814 261.106064,718.055561 C259.578702,715.306292 258.204068,712.404296 256.982176,709.349574 C255.760283,706.294851 254.691134,703.240113 253.774711,700.185375 C252.858288,697.130652 251.789138,694.07593 250.567246,691.021191 L247.817992,680.024162 L206.579129,680.024162 L206.579129,632.370369 L246.901569,632.370369 L249.650823,620.456916 C250.261777,617.402194 251.025457,614.347456 251.94188,611.292733 C252.858288,608.237995 253.927453,604.877788 255.149345,601.212127 C256.371237,598.157389 257.745856,595.255393 259.273233,592.50614 C260.800594,589.756886 262.480698,586.85489 264.313528,583.800152 L269.812051,573.719546 L242.31947,545.310558 L275.310558,512.31947 L302.803139,539.812035 L313.800168,533.397105 C316.243952,531.564259 318.993206,529.884171 322.047944,528.356794 C325.102666,526.829433 328.157389,525.454814 331.212127,524.232907 C334.877803,523.01103 338.238011,521.789122 341.292733,520.567246 C344.347471,519.345338 347.707663,518.428931 351.373355,517.817977 L362.370369,514.1523 L362.370369,476.579129 L410.024178,476.579129 Z M386.197273,726.761533 C395.97241,726.761533 405.136609,724.928702 413.689839,721.263026 C422.243099,717.597349 429.574452,712.404296 435.683897,705.683897 C442.404312,699.574436 447.597349,692.243084 451.263026,683.689839 C454.928702,675.136594 456.761548,665.972395 456.761548,656.197258 C456.761548,646.422121 454.928702,637.257937 451.263026,628.704692 C447.597349,620.151447 442.404312,612.820095 435.683897,606.710634 C429.574452,599.990219 422.243099,594.797182 413.689839,591.131505 C405.136609,587.465829 395.97241,585.632998 386.197273,585.632998 C376.422136,585.632998 367.257937,587.465829 358.704708,591.131505 C350.151447,594.797182 342.820095,599.990219 336.710649,606.710634 C329.990235,612.820095 324.797197,620.151447 321.131521,628.704692 C317.465844,637.257937 315.632998,646.422121 315.632998,656.197258 C315.632998,665.972395 317.465844,675.136594 321.131521,683.689839 C324.797197,692.243084 329.990235,699.574436 336.710649,705.683897 C342.820095,712.404296 350.151447,717.597349 358.704708,721.263026 C367.257937,724.928702 376.422136,726.761533 386.197273,726.761533 L386.197273,726.761533 Z M425.603291,461 L346.791256,461 L346.791256,502.238848 C343.125579,503.460756 339.459903,504.682632 335.794226,505.90454 C332.12855,507.126417 328.768343,508.348324 325.713605,509.570201 C322.047944,511.403047 318.534994,513.083151 315.174787,514.610512 C311.814595,516.137873 308.607115,517.817977 305.552392,519.650823 L275.310558,490.325411 L220.325411,545.310558 L250.567246,575.552376 C248.734415,579.218068 247.054312,582.57826 245.526935,585.632998 C243.999574,588.687721 242.624939,592.047928 241.403063,595.713605 C239.570216,599.379281 238.195582,602.892215 237.279175,606.252422 C236.362752,609.61263 235.293586,613.125564 234.07171,616.79124 L191,616.79124 L191,695.603291 L235.90454,695.603291 C236.515494,698.658013 237.431901,701.865478 238.653793,705.225686 C239.875686,708.585893 241.403063,712.098827 243.235893,715.764503 C244.457785,718.819242 245.83242,722.026707 247.359781,725.386914 C248.887142,728.747105 250.567246,731.649101 252.400076,734.092886 L220.325411,767.083973 L275.310558,822.06912 L308.301645,789.078032 C311.356384,790.910878 314.411106,792.590982 317.465844,794.118343 C320.520567,795.645704 323.880774,797.020339 327.546451,798.242231 C330.601173,799.464123 333.808654,800.686015 337.168845,801.907907 C340.529053,803.129799 343.736518,804.046222 346.791256,804.657161 L346.791256,851.394531 L425.603291,851.394531 L425.603291,804.657161 C428.658029,804.046222 431.865494,803.129799 435.225701,801.907907 C438.585893,800.686015 441.793374,799.464123 444.848096,798.242231 C448.513772,797.020339 451.87398,795.645704 454.928702,794.118343 C457.98344,792.590982 461.038163,790.910878 464.092901,789.078032 L497.083989,822.06912 L552.069135,767.083973 L519.994471,734.092886 C521.827301,731.649101 523.507405,728.747105 525.034766,725.386914 C526.562127,722.026707 527.936762,718.819242 529.158654,715.764503 C530.991484,712.098827 532.518861,708.585893 533.740753,705.225686 C534.962645,701.865478 535.879053,698.658013 536.490007,695.603291 L581.394547,695.603291 L581.394547,616.79124 L538.322837,616.79124 C537.10096,613.125564 536.031795,609.61263 535.115372,606.252422 C534.198965,602.892215 532.82433,599.379281 530.991484,595.713605 C529.769608,592.047928 528.394973,588.687721 526.867612,585.632998 C525.340235,582.57826 523.660131,579.218068 521.827301,575.552376 L552.069135,545.310558 L497.083989,490.325411 L466.842155,519.650823 C463.787432,517.817977 460.579951,516.137873 457.21976,514.610512 C453.859553,513.083151 450.346603,511.403047 446.680942,509.570201 C443.626204,508.348324 440.265997,507.126417 436.60032,505.90454 C432.934644,504.682632 429.268967,503.460756 425.603291,502.238848 L425.603291,461 L425.603291,461 Z M386.197273,711.18242 C378.86592,711.18242 371.840037,709.655043 365.119638,706.60032 C358.399223,703.545582 352.595232,699.574436 347.707663,694.686868 C342.820095,689.799299 338.848949,683.995308 335.794226,677.274909 C332.739488,670.554494 331.212127,663.528611 331.212127,656.197258 C331.212127,648.865905 332.739488,641.840037 335.794226,635.119622 C338.848949,628.399223 342.820095,622.595232 347.707663,617.707663 C352.595232,612.820095 358.399223,608.848949 365.119638,605.794211 C371.840037,602.739488 378.86592,601.212127 386.197273,601.212127 C393.528626,601.212127 400.55451,602.739488 407.274909,605.794211 C413.995323,608.848949 419.799315,612.820095 424.686884,617.707663 C429.574452,622.595232 433.545598,628.399223 436.60032,635.119622 C439.655058,641.840037 441.18242,648.865905 441.18242,656.197258 C441.18242,663.528611 439.655058,670.554494 436.60032,677.274909 C433.545598,683.995308 429.574452,689.799299 424.686884,694.686868 C419.799315,699.574436 413.995323,703.545582 407.274909,706.60032 C400.55451,709.655043 393.528626,711.18242 386.197273,711.18242 L386.197273,711.18242 Z" id="Shape"></path>
                <path d="M542.138503,196.532867 L542.138503,224.347411 L550.279336,227.061026 C552.992963,227.513301 555.480435,228.191696 557.741786,229.096246 C560.003126,230.000773 562.49061,230.905323 565.204225,231.80985 C567.465576,232.714399 569.726916,233.731998 571.988256,234.862668 C574.249608,235.993349 576.284816,237.237079 578.093893,238.593893 L586.234738,243.342716 L606.586856,222.99061 L631.00939,247.413144 L610.657272,268.443657 L614.727701,275.906096 C616.084502,278.167447 617.328244,280.315727 618.458914,282.350936 C619.589596,284.386144 620.607194,286.534424 621.511732,288.795775 C622.416271,291.509379 623.207749,293.996862 623.886144,296.258214 C624.564551,298.519554 625.129886,300.780905 625.58216,303.042245 L627.617369,311.861497 L657.467133,311.861497 L657.467133,347.138492 L626.938962,347.138492 L624.903754,355.279336 C623.999216,357.540688 623.207749,359.802028 622.529342,362.063368 C621.850936,364.32472 621.059469,366.586071 620.154931,368.847411 C619.250392,371.108751 618.232782,373.257031 617.102112,375.292251 C615.971442,377.327459 614.727701,379.475739 613.370887,381.737079 L608.622064,389.199518 L631.00939,411.586844 L606.586856,436.009379 L584.199529,413.622064 L576.058684,417.692481 C574.249608,419.049294 572.327459,420.179964 570.292251,421.084502 C568.257043,421.989041 566.108763,422.893579 563.847423,423.798117 C561.586071,424.702656 559.32472,425.494122 557.06338,426.172529 C554.80204,426.850936 552.540688,427.642402 550.279336,428.546941 L542.138503,430.582149 L542.138503,462.467133 L506.861497,462.467133 L506.861497,430.582149 L498.720664,428.546941 C496.459312,427.642402 494.19796,426.850936 491.93662,426.172529 C489.67528,425.494122 487.413929,424.702656 485.152577,423.798117 C482.891237,422.893579 480.742957,421.989041 478.707749,421.084502 C476.672541,420.179964 474.750392,419.049294 472.941316,417.692481 L464.800471,413.622064 L442.413144,436.009379 L417.99061,411.586844 L440.377936,389.199518 L435.629113,381.737079 C434.272299,379.475739 433.028558,377.327459 431.897888,375.292251 C430.767218,373.257031 429.749608,371.108751 428.845069,368.847411 C427.940531,366.586071 427.149064,364.32472 426.470658,362.063368 C425.792251,359.802028 425.000784,357.540688 424.096246,355.279336 L422.061038,347.138492 L391.532867,347.138492 L391.532867,311.861497 L421.382631,311.861497 L423.41784,303.042245 C423.870114,300.780905 424.435449,298.519554 425.113856,296.258214 C425.792251,293.996862 426.583729,291.509379 427.488268,288.795775 C428.392806,286.534424 429.410404,284.386144 430.541086,282.350936 C431.671756,280.315727 432.915498,278.167447 434.272299,275.906096 L438.342728,268.443657 L417.99061,247.413144 L442.413144,222.99061 L462.765262,243.342716 L470.906107,238.593893 C472.715184,237.237079 474.750392,235.993349 477.011744,234.862668 C479.273084,233.731998 481.534424,232.714399 483.795775,231.80985 C486.50939,230.905323 488.996874,230.000773 491.258214,229.096246 C493.519565,228.191696 496.007037,227.513301 498.720664,227.061026 L506.861497,224.347411 L506.861497,196.532867 L542.138503,196.532867 Z M524.5,381.737079 C531.736307,381.737079 538.52035,380.380278 544.852106,377.666663 C551.183886,374.953048 556.611116,371.108751 561.133796,366.133796 C566.108763,361.611105 569.953048,356.183875 572.666663,349.852106 C575.380278,343.520338 576.737091,336.736295 576.737091,329.499988 C576.737091,322.263682 575.380278,315.47965 572.666663,309.147882 C569.953048,302.816114 566.108763,297.388884 561.133796,292.866192 C556.611116,287.891226 551.183886,284.046941 544.852106,281.333326 C538.52035,278.619711 531.736307,277.262909 524.5,277.262909 C517.263693,277.262909 510.47965,278.619711 504.147894,281.333326 C497.816114,284.046941 492.388884,287.891226 487.866204,292.866192 C482.891237,297.388884 479.046952,302.816114 476.333337,309.147882 C473.619722,315.47965 472.262909,322.263682 472.262909,329.499988 C472.262909,336.736295 473.619722,343.520338 476.333337,349.852106 C479.046952,356.183875 482.891237,361.611105 487.866204,366.133796 C492.388884,371.108751 497.816114,374.953048 504.147894,377.666663 C510.47965,380.380278 517.263693,381.737079 524.5,381.737079 L524.5,381.737079 Z M553.671358,185 L495.328642,185 L495.328642,215.52816 C492.615027,216.43271 489.901412,217.337236 487.187797,218.241786 C484.474182,219.146313 481.986699,220.050863 479.725347,220.95539 C477.011744,222.312203 474.411189,223.555945 471.923706,224.686615 C469.436234,225.817285 467.061811,227.061026 464.800471,228.41784 L442.413144,206.70892 L401.70892,247.413144 L424.096246,269.800459 C422.739444,272.514086 421.495703,275.001557 420.365021,277.262909 C419.234351,279.524249 418.216741,282.011732 417.312215,284.725347 C415.955401,287.438962 414.937791,290.039506 414.259396,292.526989 C413.58099,295.014472 412.789511,297.615015 411.884985,300.32863 L380,300.32863 L380,358.671358 L413.241786,358.671358 C413.694061,360.932698 414.372456,363.30711 415.276995,365.794593 C416.181533,368.282076 417.312215,370.88262 418.669016,373.596235 C419.573555,375.857586 420.591164,378.231998 421.721834,380.719481 C422.852505,383.206953 424.096246,385.355233 425.453048,387.164309 L401.70892,411.586844 L442.413144,452.291069 L466.835679,427.868534 C469.097031,429.225347 471.358371,430.469089 473.619722,431.599759 C475.881062,432.730429 478.368546,433.748039 481.08216,434.652577 C483.343501,435.557115 485.717924,436.461654 488.205395,437.366192 C490.692879,438.27073 493.06729,438.949137 495.328642,439.4014 L495.328642,473.999988 L553.671358,473.999988 L553.671358,439.4014 C555.93271,438.949137 558.307121,438.27073 560.794605,437.366192 C563.282076,436.461654 565.656499,435.557115 567.91784,434.652577 C570.631454,433.748039 573.118938,432.730429 575.380278,431.599759 C577.641629,430.469089 579.902969,429.225347 582.164321,427.868534 L606.586856,452.291069 L647.29108,411.586844 L623.546952,387.164309 C624.903754,385.355233 626.147495,383.206953 627.278166,380.719481 C628.408836,378.231998 629.426445,375.857586 630.330984,373.596235 C631.687785,370.88262 632.818467,368.282076 633.723005,365.794593 C634.627544,363.30711 635.305939,360.932698 635.758214,358.671358 L669,358.671358 L669,300.32863 L637.115015,300.32863 C636.210489,297.615015 635.41901,295.014472 634.740604,292.526989 C634.062209,290.039506 633.044599,287.438962 631.687785,284.725347 C630.783259,282.011732 629.765649,279.524249 628.634979,277.262909 C627.504297,275.001557 626.260556,272.514086 624.903754,269.800459 L647.29108,247.413144 L606.586856,206.70892 L584.199529,228.41784 C581.938189,227.061026 579.563766,225.817285 577.076294,224.686615 C574.588811,223.555945 571.988256,222.312203 569.274653,220.95539 C567.013301,220.050863 564.525818,219.146313 561.812203,218.241786 C559.098588,217.337236 556.384973,216.43271 553.671358,215.52816 L553.671358,185 L553.671358,185 Z M524.5,370.204225 C519.07277,370.204225 513.871672,369.073543 508.896717,366.812203 C503.92175,364.550851 499.62519,361.611105 496.007037,357.992951 C492.388884,354.374798 489.449137,350.078238 487.187797,345.103283 C484.926445,340.128317 483.795775,334.927218 483.795775,329.499988 C483.795775,324.072758 484.926445,318.871672 487.187797,313.896705 C489.449137,308.92175 492.388884,304.62519 496.007037,301.007037 C499.62519,297.388884 503.92175,294.449137 508.896717,292.187785 C513.871672,289.926445 519.07277,288.795775 524.5,288.795775 C529.92723,288.795775 535.128328,289.926445 540.103283,292.187785 C545.07825,294.449137 549.37481,297.388884 552.992963,301.007037 C556.611116,304.62519 559.550863,308.92175 561.812203,313.896705 C564.073555,318.871672 565.204225,324.072758 565.204225,329.499988 C565.204225,334.927218 564.073555,340.128317 561.812203,345.103283 C559.550863,350.078238 556.611116,354.374798 552.992963,357.992951 C549.37481,361.611105 545.07825,364.550851 540.103283,366.812203 C535.128328,369.073543 529.92723,370.204225 524.5,370.204225 L524.5,370.204225 Z" id="Shape" transform="translate(524.500000, 329.499994) rotate(-23.000000) translate(-524.500000, -329.499994) "></path>
            </g>
            <path d="M1030.81344,793.826984 L1084.13955,846.200842 L987.96209,846.200842 L789.893667,635.753138 L478,635.753138 L478,651.941427 L783.227907,651.941427 L981.29633,862.389131 L1084.13955,862.389131 L1030.81344,915.715245 L1042.24046,927.142269 L1115.56385,854.771115 L1042.24046,781.447704 L1030.81344,793.826984 Z M783.227907,846.200842 L708,846.200842 L708,862.389131 L789.893667,862.389131 L868.930582,779.543208 L856.551301,768.116167 L783.227907,846.200842 Z M987.96209,651.941427 L1084.13955,651.941427 L1030.81344,704.315285 L1042.24046,716.694565 L1115.56385,643.371155 L1042.24046,571 L1030.81344,582.427024 L1084.13955,635.753138 L981.29633,635.753138 L902.259399,719.551317 L913.68644,730.978342 L987.96209,651.941427 Z" id="Shape" fill="#F6A623"></path>
        </g>
    </g>
</svg>