<?xml version="1.0" standalone="no"?>
<!DOCTYPE svg PUBLIC "-//W3C//DTD SVG 20010904//EN"
 "http://www.w3.org/TR/2001/REC-SVG-20010904/DTD/svg10.dtd">
<svg version="1.0" xmlns="http://www.w3.org/2000/svg"
 width="1320.000000pt" height="345.000000pt" viewBox="0 0 1320.000000 345.000000"
 preserveAspectRatio="xMidYMid meet">
<metadata>
Created by potrace 1.13, written by Peter Selinger 2001-2015
</metadata>
<g transform="translate(0.000000,345.000000) scale(0.100000,-0.100000)"
fill="#000000" stroke="none">
<path d="M1212 2710 c-209 -95 -323 -283 -309 -510 7 -104 9 -110 142 -495
340 -981 351 -1009 433 -1097 89 -95 196 -138 346 -138 151 0 285 54 388 156
47 47 131 174 114 174 -3 0 -27 -14 -53 -30 -80 -51 -149 -72 -254 -78 -116
-6 -206 17 -282 71 -95 68 -68 4 -433 1042 -75 215 -145 419 -156 455 -39 138
-15 283 66 405 25 36 43 65 43 65 -1 0 -21 -9 -45 -20z"/>
<path d="M1655 2566 c-169 -55 -192 -68 -216 -119 -21 -48 -23 -65 -10 -100
l10 -24 121 44 c67 24 136 54 155 66 47 30 77 87 73 136 l-3 39 -130 -42z"/>
<path d="M1801 1603 c-37 -19 -71 -66 -71 -100 0 -12 9 -47 21 -78 17 -46 25
-56 52 -64 95 -26 266 24 307 91 20 33 26 93 12 116 -7 9 -19 9 -59 -3 l-51
-15 -35 35 c-31 31 -41 35 -88 35 -30 0 -69 -8 -88 -17z"/>
</g>
</svg>
