<svg x="0" y="0" width="300" height="300" version="1.1" xmlns="http://www.w3.org/2000/svg" xmlns:xlink="http://www.w3.org/1999/xlink"><g data-paper-data="{&quot;description&quot;:&quot;Logo for FeedCrunch.io\n======================\n\nThis logo was generated by MarkMaker and is composed of elements designed by others.\n\nThe font is Encode Sans designed by Impallari Type and released under the OFL license via Google Fonts: https://www.google.com/fonts/specimen/Encode Sans. The font includes this copyright statement: Copyright (c) 2012, Impallari Type (www.impallari.com), with Reserved Font Name Encode Sans.\n\nMarkMaker uses semantic data from the Princeton University WordNet database http://wordnet.princeton.edu and font descriptions from Google Fonts https://www.google.com/fonts.\n\nThis design is inspired by designs that past users of MarkMaker have liked. As a result, it may be visually similar to past or future designs generated by the system. There is no guarantee that it is unique, original, or suitable in any way for use as a logo.\n\n&quot;}" fill="#000000" stroke="none" stroke-width="1" stroke-linecap="butt" stroke-linejoin="miter" stroke-miterlimit="10" stroke-dasharray="" stroke-dashoffset="0" font-family="sans-serif" font-weight="normal" font-size="12" text-anchor="start" mix-blend-mode="normal"><g data-paper-data="{&quot;elementType&quot;:&quot;logo&quot;}"><g data-paper-data="{&quot;elementType&quot;:&quot;text&quot;}"><g data-paper-data="{&quot;baseline&quot;:80.80000000000001,&quot;elementType&quot;:&quot;row&quot;}"><g data-paper-data="{&quot;baselineProportion&quot;:0.9877750611246944,&quot;fontSize&quot;:100,&quot;baseline&quot;:80.80000000000001,&quot;elementType&quot;:&quot;word&quot;}"><path d="M30,140.4l13.09091,0l0,2.08328l-10.58534,0l0,7.37595l9.6563,0l0,2.08328l-9.6563,0l0,9.29032l-2.50557,0l0,-20.83284z" data-paper-data="{&quot;elementType&quot;:&quot;letter&quot;,&quot;baseline&quot;:74,&quot;baselineProportion&quot;:1,&quot;fontSize&quot;:100}"></path><path d="M57.22346,161.48622c-2.32727,0 -4.08211,-0.64282 -5.26452,-1.92845c-1.1824,-1.28563 -1.77361,-3.19531 -1.77361,-5.72903c0,-2.6088 0.58651,-4.60293 1.75953,-5.9824c1.17302,-1.37947 2.87625,-2.06921 5.10968,-2.06921c3.88504,0 5.82757,2.26158 5.82757,6.78475c0,0.86334 -0.06569,1.52023 -0.19707,1.97067l-10.02229,0c0.09384,1.76422 0.53021,3.03109 1.30909,3.80059c0.77889,0.7695 1.96598,1.15425 3.56129,1.15425c0.7132,0 1.47331,-0.06569 2.28035,-0.19707c0.80704,-0.13138 1.60469,-0.32845 2.39296,-0.5912l0.14076,1.88622c-0.75073,0.28152 -1.58123,0.50205 -2.4915,0.66158c-0.91026,0.15953 -1.78768,0.2393 -2.63226,0.2393 M56.99824,147.6915c-2.70264,0 -4.1478,1.69853 -4.33548,5.0956l7.939,0c0,-1.8393 -0.29091,-3.14839 -0.87273,-3.92727c-0.58182,-0.77889 -1.49208,-1.16833 -2.73079,-1.16833z" data-paper-data="{&quot;elementType&quot;:&quot;letter&quot;,&quot;baseline&quot;:54.900000000000006,&quot;baselineProportion&quot;:0.9838709677419354,&quot;fontSize&quot;:100}"></path><path d="M77.32434,161.48622c-2.32727,0 -4.08211,-0.64282 -5.26452,-1.92845c-1.1824,-1.28563 -1.77361,-3.19531 -1.77361,-5.72903c0,-2.6088 0.58651,-4.60293 1.75953,-5.9824c1.17302,-1.37947 2.87625,-2.06921 5.10968,-2.06921c3.88504,0 5.82757,2.26158 5.82757,6.78475c0,0.86334 -0.06569,1.52023 -0.19707,1.97067l-10.02229,0c0.09384,1.76422 0.53021,3.03109 1.30909,3.80059c0.77889,0.7695 1.96598,1.15425 3.56129,1.15425c0.7132,0 1.47331,-0.06569 2.28035,-0.19707c0.80704,-0.13138 1.60469,-0.32845 2.39296,-0.5912l0.14076,1.88622c-0.75073,0.28152 -1.58123,0.50205 -2.4915,0.66158c-0.91026,0.15953 -1.78768,0.2393 -2.63226,0.2393 M77.09912,147.6915c-2.70264,0 -4.1478,1.69853 -4.33548,5.0956l7.939,0c0,-1.8393 -0.29091,-3.14839 -0.87273,-3.92727c-0.58182,-0.77889 -1.49208,-1.16833 -2.73079,-1.16833z" data-paper-data="{&quot;elementType&quot;:&quot;letter&quot;,&quot;baseline&quot;:54.900000000000006,&quot;baselineProportion&quot;:0.9838709677419354,&quot;fontSize&quot;:100}"></path><path d="M96.6651,161.51437c-2.06452,0 -3.63167,-0.62874 -4.70147,-1.88622c-1.06979,-1.25748 -1.60469,-3.21877 -1.60469,-5.88387c0,-1.35132 0.1783,-2.52434 0.5349,-3.51906c0.3566,-0.99472 0.86334,-1.82522 1.52023,-2.4915c0.65689,-0.66628 1.44985,-1.16364 2.37889,-1.49208c0.92903,-0.32845 1.9566,-0.49267 3.0827,-0.49267c0.65689,0 1.28563,0.03284 1.88622,0.09853c0.60059,0.06569 1.16364,0.12669 1.68915,0.18299l0,-7.54487l2.44927,0l0,22.74721l-2.13959,0l-0.22522,-1.85806l-0.16891,0c-1.05103,1.42639 -2.61818,2.13959 -4.70147,2.13959 M97.22815,159.5437c0.56305,0 1.09795,-0.07977 1.60469,-0.2393c0.50674,-0.15953 0.95718,-0.38475 1.35132,-0.67566c0.39413,-0.29091 0.70381,-0.64751 0.92903,-1.06979c0.22522,-0.42229 0.33783,-0.90557 0.33783,-1.44985l0,-8.13607c-0.50674,-0.09384 -1.0651,-0.16891 -1.67507,-0.22522c-0.60997,-0.0563 -1.25279,-0.08446 -1.92845,-0.08446c-1.65161,0 -2.89032,0.45982 -3.71613,1.37947c-0.82581,0.91965 -1.23871,2.44927 -1.23871,4.58886c0,2.12082 0.34721,3.63636 1.04164,4.54663c0.69443,0.91026 1.79238,1.3654 3.29384,1.3654z" data-paper-data="{&quot;elementType&quot;:&quot;letter&quot;,&quot;baseline&quot;:80.80000000000001,&quot;baselineProportion&quot;:0.9877750611246944,&quot;fontSize&quot;:100}"></path><path d="M121.69267,161.48622c-6.28739,0 -9.43109,-3.53783 -9.43109,-10.61349c0,-3.64106 0.77889,-6.3437 2.33666,-8.10792c1.55777,-1.76422 3.9132,-2.64633 7.06628,-2.64633c0.63812,0 1.3654,0.04223 2.18182,0.12669c0.81642,0.08446 1.63754,0.20176 2.46334,0.35191l0,2.13959c-0.90088,-0.15015 -1.71261,-0.26276 -2.43519,-0.33783c-0.72258,-0.07507 -1.3654,-0.11261 -1.92845,-0.11261c-2.45865,0 -4.26041,0.68035 -5.40528,2.04106c-1.14487,1.3607 -1.7173,3.53314 -1.7173,6.5173c0,2.92786 0.55836,5.07683 1.67507,6.44692c1.11672,1.37009 2.86686,2.05513 5.25044,2.05513c0.30029,0 0.6522,-0.01408 1.05572,-0.04223c0.40352,-0.02815 0.81642,-0.06569 1.23871,-0.11261c0.42229,-0.04692 0.83519,-0.10323 1.23871,-0.16891c0.40352,-0.06569 0.74604,-0.13607 1.02757,-0.21114l0,2.11144c-0.65689,0.15015 -1.41701,0.28152 -2.28035,0.39413c-0.86334,0.11261 -1.64223,0.16891 -2.33666,0.16891z" data-paper-data="{&quot;elementType&quot;:&quot;letter&quot;,&quot;baseline&quot;:75,&quot;baselineProportion&quot;:0.9881422924901185,&quot;fontSize&quot;:100}"></path><path d="M134.33314,146.0305l2.05513,0l0.16891,2.08328l0.11261,0c1.05103,-0.58182 2.0176,-1.07918 2.89971,-1.49208c0.88211,-0.4129 1.7173,-0.69443 2.50557,-0.84457l0.78827,0l0,2.33666l-0.87273,0c-0.84457,0.11261 -1.71261,0.33314 -2.60411,0.66158c-0.8915,0.32845 -1.75015,0.7085 -2.57595,1.14018l0,11.3173l-2.47742,0l0,-15.20235z" data-paper-data="{&quot;elementType&quot;:&quot;letter&quot;,&quot;baseline&quot;:54.900000000000006,&quot;baselineProportion&quot;:1,&quot;fontSize&quot;:100}"></path><path d="M153.87097,161.51437c-2.57126,0 -3.85689,-1.38886 -3.85689,-4.16657l0,-11.3173l2.47742,0l0,10.52903c0,1.01349 0.1783,1.74076 0.5349,2.18182c0.3566,0.44106 0.95718,0.66158 1.80176,0.66158c0.90088,0 1.82991,-0.19238 2.7871,-0.57713c0.95718,-0.38475 1.88622,-0.80235 2.7871,-1.25279l0,-11.54252l2.47742,0l0,15.20235l-2.05513,0l-0.16891,-1.85806l-0.11261,0c-0.7695,0.37537 -1.44516,0.69912 -2.02698,0.97126c-0.58182,0.27214 -1.12141,0.49267 -1.61877,0.66158c-0.49736,0.16891 -0.98534,0.2956 -1.46393,0.38006c-0.47859,0.08446 -0.99941,0.12669 -1.56246,0.12669z" data-paper-data="{&quot;elementType&quot;:&quot;letter&quot;,&quot;baseline&quot;:54,&quot;baselineProportion&quot;:0.9818181818181818,&quot;fontSize&quot;:100}"></path><path d="M171.94487,146.0305l2.05513,0l0.16891,1.77361l0.14076,0c0.75073,-0.3566 1.43109,-0.66628 2.04106,-0.92903c0.60997,-0.26276 1.17302,-0.47859 1.68915,-0.64751c0.51613,-0.16891 0.99941,-0.29091 1.44985,-0.36598c0.45044,-0.07507 0.8915,-0.11261 1.32317,-0.11261c1.29501,0 2.28504,0.34252 2.97009,1.02757c0.68504,0.68504 1.02757,1.73138 1.02757,3.139l0,11.3173l-2.47742,0l0,-10.50088c0,-1.05103 -0.19707,-1.79707 -0.5912,-2.23812c-0.39413,-0.44106 -1.01349,-0.66158 -1.85806,-0.66158c-0.7132,0 -1.5437,0.15015 -2.4915,0.45044c-0.9478,0.30029 -1.93783,0.70381 -2.97009,1.21056l0,11.73959l-2.47742,0l0,-15.20235z" data-paper-data="{&quot;elementType&quot;:&quot;letter&quot;,&quot;baseline&quot;:55,&quot;baselineProportion&quot;:1,&quot;fontSize&quot;:100}"></path><path d="M200.18182,161.48622c-4.82346,0 -7.23519,-2.6088 -7.23519,-7.82639c0,-5.25513 2.41173,-7.8827 7.23519,-7.8827c0.58182,0 1.19179,0.03284 1.82991,0.09853c0.63812,0.06569 1.22933,0.16422 1.77361,0.2956l0,2.08328c-0.56305,-0.13138 -1.1261,-0.22522 -1.68915,-0.28152c-0.56305,-0.0563 -1.11672,-0.08446 -1.661,-0.08446c-1.70792,0 -2.9654,0.46452 -3.77243,1.39355c-0.80704,0.92903 -1.21056,2.37889 -1.21056,4.34956c0,2.00821 0.38944,3.46745 1.16833,4.37771c0.77889,0.91026 2.03167,1.3654 3.75836,1.3654c0.61935,0 1.1871,-0.02346 1.70323,-0.07038c0.51613,-0.04692 1.08387,-0.13607 1.70323,-0.26745l0,2.05513c-0.45044,0.11261 -1.00411,0.20645 -1.661,0.28152c-0.65689,0.07507 -1.3044,0.11261 -1.94252,0.11261z" data-paper-data="{&quot;elementType&quot;:&quot;letter&quot;,&quot;baseline&quot;:54.900000000000006,&quot;baselineProportion&quot;:0.9838709677419354,&quot;fontSize&quot;:100}"></path><path d="M211.92141,138.48563l2.44927,0l0,9.29032c1.44516,-0.69443 2.66041,-1.20587 3.64575,-1.53431c0.98534,-0.32845 1.90968,-0.49267 2.77302,-0.49267c1.29501,0 2.28504,0.34252 2.97009,1.02757c0.68504,0.68504 1.02757,1.73138 1.02757,3.139l0,11.3173l-2.47742,0l0,-10.50088c0,-1.05103 -0.19707,-1.79707 -0.5912,-2.23812c-0.39413,-0.44106 -1.01349,-0.66158 -1.85806,-0.66158c-0.7132,0 -1.539,0.15015 -2.47742,0.45044c-0.93842,0.30029 -1.94252,0.70381 -3.01232,1.21056l0,11.73959l-2.44927,0l0,-22.74721z" data-paper-data="{&quot;elementType&quot;:&quot;letter&quot;,&quot;baseline&quot;:80.80000000000001,&quot;baselineProportion&quot;:1,&quot;fontSize&quot;:100}"></path><path d="M234.92199,161.34545c-0.48798,0 -0.87742,-0.13138 -1.16833,-0.39413c-0.29091,-0.26276 -0.43636,-0.64751 -0.43636,-1.15425c0,-0.52551 0.14545,-0.91026 0.43636,-1.15425c0.29091,-0.24399 0.68035,-0.36598 1.16833,-0.36598c0.48798,0 0.87742,0.12669 1.16833,0.38006c0.29091,0.25337 0.43636,0.63343 0.43636,1.14018c0,0.50674 -0.14545,0.8915 -0.43636,1.15425c-0.29091,0.26276 -0.68035,0.39413 -1.16833,0.39413z" data-paper-data="{&quot;elementType&quot;:&quot;letter&quot;,&quot;baseline&quot;:10.5,&quot;baselineProportion&quot;:0.9633027522935774,&quot;fontSize&quot;:100}"></path><path d="M245.19765,146.0305l2.44927,0l0,15.20235l-2.44927,0l0,-15.20235z M246.40821,142.87742c-1.01349,0 -1.52023,-0.49736 -1.52023,-1.49208c0,-1.01349 0.50674,-1.52023 1.52023,-1.52023c1.05103,0 1.57654,0.50674 1.57654,1.52023c0,0.99472 -0.52551,1.49208 -1.57654,1.49208" data-paper-data="{&quot;elementType&quot;:&quot;letter&quot;,&quot;baseline&quot;:75.9,&quot;baselineProportion&quot;:1,&quot;fontSize&quot;:100}"></path><path d="M262.96188,161.51437c-2.28974,0 -4.03519,-0.67566 -5.23636,-2.02698c-1.20117,-1.35132 -1.80176,-3.30323 -1.80176,-5.85572c0,-2.57126 0.60059,-4.52786 1.80176,-5.86979c1.20117,-1.34194 2.94663,-2.0129 5.23636,-2.0129c2.28974,0 4.03519,0.67097 5.23636,2.0129c1.20117,1.34194 1.80176,3.29853 1.80176,5.86979c0,2.57126 -0.60059,4.52786 -1.80176,5.86979c-1.20117,1.34194 -2.94663,2.0129 -5.23636,2.0129 M262.96188,159.48739c1.57654,0 2.7261,-0.46452 3.44868,-1.39355c0.72258,-0.92903 1.08387,-2.41642 1.08387,-4.46217c0,-2.04575 -0.36129,-3.53314 -1.08387,-4.46217c-0.72258,-0.92903 -1.87214,-1.39355 -3.44868,-1.39355c-1.55777,0 -2.70264,0.46452 -3.4346,1.39355c-0.73196,0.92903 -1.09795,2.41642 -1.09795,4.46217c0,2.04575 0.36598,3.53314 1.09795,4.46217c0.73196,0.92903 1.87683,1.39355 3.4346,1.39355z" data-paper-data="{&quot;elementType&quot;:&quot;letter&quot;,&quot;baseline&quot;:55,&quot;baselineProportion&quot;:0.9821428571428571,&quot;fontSize&quot;:100}"></path></g></g></g></g></g></svg>