<svg xmlns="http://www.w3.org/2000/svg" width="170" height="25" viewBox="0 0 170 25"><g fill="none" fill-rule="evenodd"><path fill="#FFF" d="M160.45 22.082a7.324 7.324 0 1 1 .001-14.648 7.324 7.324 0 0 1 0 14.648zM167.776.77v7.864a9.527 9.527 0 0 0-7.324-3.426 9.55 9.55 0 1 0 9.55 9.549L169.999.064l-2.225.706zm-27.272 4.776a8.254 8.254 0 0 0-8.254 8.254v10.114h2.225V13.8h.003a6.025 6.025 0 0 1 6.026-6.025 6.025 6.025 0 0 1 6.026 6.025v10.114h2.225V13.8h.002a8.254 8.254 0 0 0-8.253-8.254m-39.727 7.482c-3.573-.438-5.56-.944-5.56-2.899 0-1.853 1.751-2.865 5.088-2.865 2.29 0 4.292.7 5.968 2.089l1.407-1.641c-2.113-1.767-4.677-2.436-7.308-2.436-4.449 0-7.347 1.92-7.347 4.853 0 3.741 3.674 4.584 7.448 5.022 3.709.438 6.168 1.078 6.168 3.472 0 2.123-2.056 3.538-5.932 3.538-2.587 0-4.822-.772-6.771-2.547a96.077 96.077 0 0 0-1.38 1.771c2.24 1.9 4.749 2.799 8.119 2.799 4.481 0 8.155-1.888 8.155-5.561 0-3.876-3.371-4.955-8.055-5.595m12.335.707c.371-3.774 3.303-6.436 7.314-6.436 3.943 0 6.639 2.763 7.01 6.436h-14.324zm7.314-8.459c-5.494 0-9.572 3.977-9.572 9.47 0 5.427 3.943 9.438 9.74 9.438 2.935 0 5.316-.914 7.31-2.469l-1.258-1.601c-1.808 1.286-3.558 2.046-6.052 2.046-4.314 0-7.077-2.762-7.448-6.402h16.514v-1.011c0-5.494-3.909-9.471-9.234-9.471zM84.427 20.651a3.02 3.02 0 0 1-3.02-3.02V3.528l-3.588.706V17.63a6.608 6.608 0 0 0 6.608 6.609c1.53 0 2.92-.54 4.04-1.413l-2.227-2.793a2.99 2.99 0 0 1-1.813.617M9.55 8.725a5.94 5.94 0 0 1 4.345 1.887h4.282C16.645 7.38 13.364 5.14 9.55 5.14A9.505 9.505 0 0 0 3.59 7.235V0l-3.59.705v9.907h5.209A5.938 5.938 0 0 1 9.55 8.725m5.804 4.607c.102.437.162.89.162 1.358a5.965 5.965 0 1 1-11.931 0h.004v-.037a6 6 0 0 1 .16-1.321H0v1.358a9.55 9.55 0 0 0 9.55 9.55c5.275 0 9.55-4.275 9.55-9.55 0-.462-.044-.913-.107-1.358h-3.639zM34.674 10.612h3.589v-5.13h-3.589zM34.674 15.734a4.917 4.917 0 1 1-9.835 0v-2.402H21.25v2.402a8.507 8.507 0 0 0 17.013 0v-2.402h-3.59v2.402zM21.25 10.611h3.589v-5.13H21.25zM44.912 0l-3.589.705v9.907h3.589zM44.912 17.632v-4.3h-3.589v4.3a6.608 6.608 0 0 0 6.609 6.608v-3.588a3.02 3.02 0 0 1-3.02-3.02M53.069 0L49.48.705v9.907h3.589zM53.07 17.632v-4.3h-3.59v4.3c0 3.65 2.96 6.608 6.61 6.608v-3.588a3.02 3.02 0 0 1-3.02-3.02m13.2-8.746c1.64 0 3.176.648 4.178 1.726h4.316c-1.398-3.279-4.512-5.4-8.494-5.4-4.008 0-7.272 2.122-8.75 5.4h4.527c1.041-1.07 2.549-1.726 4.223-1.726m-9.51 4.446c-.057.44-.097.888-.097 1.35 0 5.426 4.012 9.438 9.775 9.438 2.628 0 5.414-.748 7.802-2.689a342.32 342.32 0 0 1-2.07-2.818c-1.712 1.367-3.497 1.832-5.732 1.832-2.967 0-5.055-1.617-5.697-3.942h14.831v-1.82c0-.463-.037-.911-.09-1.351H56.76z"/><path fill="#FF6464" d="M83.664 9.985l-5.845.132v3.704l5.845.138c1.603 0 2.978-.82 3.565-1.987-.587-1.168-1.962-1.987-3.565-1.987"/></g></svg>
